PathFileType	4	(X/Y/Z)	C:\Users\willi\Desktop\Data_PaperCallum_v2\17_Akif\Gait01\marker_experimental_temp.trc
DataRate	CameraRate	NumFrames	NumMarkers	Units	OrigDataRate	OrigDataStartFrame	OrigNumFrames
100.000000	100.000000	6	27	mm	100.000000	67	180
Frame#	Time	C7			T10			Clav			Sternum			Right_Back			PCL_CRAN			PCL_RECHTS			PCL_LINKS			RCL_UL_CRAN			RCL_UL_POST			RCL_UL_ANT			RCL_LL_CRAN			RCL_LL_POST			RCL_LL_ANT			Right_Heel			Right_Toe			Right_M5			LCL_UL_CRAN			LCL_UL_POST			LCL_UL_ANT			LCL_LL_CRAN			LCL_LL_POST			LCL_LL_ANT			Left_Heel			Left_Toe			Left_M5			*26			
		X1	Y1	Z1	X2	Y2	Z2	X3	Y3	Z3	X4	Y4	Z4	X5	Y5	Z5	X6	Y6	Z6	X7	Y7	Z7	X8	Y8	Z8	X9	Y9	Z9	X10	Y10	Z10	X11	Y11	Z11	X12	Y12	Z12	X13	Y13	Z13	X14	Y14	Z14	X15	Y15	Z15	X16	Y16	Z16	X17	Y17	Z17	X18	Y18	Z18	X19	Y19	Z19	X20	Y20	Z20	X21	Y21	Z21	X22	Y22	Z22	X23	Y23	Z23	X24	Y24	Z24	X25	Y25	Z25	X26	Y26	Z26	X27	Y27	Z27	

68	0.67	657.4722900390624	1371.36865234375	206.5998077392578	692.6201171874999	1154.997924804688	217.7889404296875	513.9424438476561	1299.21142578125	218.9087982177734	452.3472900390624	1136.616943359375	230.4204406738281	684.4453124999999	1306.429565429688	89.09104156494136	679.4753417968749	986.872802734375	220.002197265625	691.2359008789063	927.3497924804688	198.3084869384765	688.1746826171875	927.6314086914063	248.6068420410156	645.9170532226563	701.60009765625	45.36872863769527	680.076904296875	646.6292114257813	52.06647109985347	632.1267700195313	638.2529907226563	39.75873565673825	815.4495239257813	387.4543762207032	77.33848571777338	870.6792602539063	351.0380554199219	79.57636260986322	827.9412841796875	322.9514160156251	81.38791656494135	1047.973510742188	121.8526992797852	175.2595214843749	881.8463134765625	30.15417671203619	177.6726684570312	933.5101318359375	12.79386520385748	125.5367584228515	501.3442382812499	724.6806030273438	384.7430419921874	493.4822692871093	659.8987426757813	379.1557312011718	450.2335815429687	683.7362670898438	377.1067199707031	405.2787780761719	361.5721740722656	340.0480651855469	409.5977783203125	296.1726989746094	335.5099487304688	362.4673767089844	312.4366149902344	333.6355590820313	382.0323791503906	24.20209121704104	250.5665588378906	181.5759887695313	53.87092590332033	260.1313781738281	222.6272583007813	23.15975761413576	315.3139953613281	-88.10380554199243	726.444091796875	-3209.537353515625	
69	0.68	642.2831420898436	1371.635620117188	207.8842468261718	676.8508300781249	1155.171142578125	218.2991790771484	498.4890747070312	1299.821044921875	219.527603149414	436.2868041992187	1137.420166015625	230.4889678955078	669.5850219726561	1307.010375976563	90.30519104003902	663.2935180664061	987.4192504882813	219.8300476074218	674.9747314453125	927.7406616210938	198.6671295166015	671.9570312499999	928.3974609375	248.9195251464843	628.2576293945313	700.6050415039063	45.5793418884277	662.1710205078125	645.504150390625	51.70518493652339	614.1715698242188	637.4620971679688	39.36357879638668	798.1924438476563	387.8719787597657	74.58410644531246	854.9388427734375	353.5840759277344	77.17969512939447	812.9081420898438	323.9294738769532	78.52960205078119	1037.816284179688	132.5613708496094	172.7020721435546	881.9677124023438	29.69114303588873	177.7225646972656	933.2535400390625	14.25963592529303	125.8715896606445	484.7964172363281	726.4750366210938	385.0763549804687	477.2366943359374	661.7837524414063	379.2647705078124	433.9351806640624	685.5088500976563	376.8084716796875	391.0743713378906	362.8198852539063	340.179443359375	396.3185119628906	297.7828369140625	336.1506042480469	348.6205444335938	313.9510498046875	334.0739135742188	381.1045227050781	26.15373802185061	250.8997497558593	178.1095275878907	46.21022033691408	258.2681884765625	221.0076446533203	18.43806648254396	315.0162963867188	-88.09691619873071	726.44677734375	-3209.521728515625	
70	0.6900000000000001	627.1071777343749	1372.239868164063	209.1344451904297	661.1821289062499	1155.7060546875	218.7570495605468	483.0802917480468	1300.732055664063	220.075439453125	420.3361816406249	1138.515991210938	230.4792327880859	654.7637329101561	1307.968627929688	91.47034454345699	647.2598876953124	988.276123046875	219.6741485595703	658.8572998046874	928.4494018554688	199.0157012939453	655.8808593749999	929.4642944335938	249.2250518798828	609.9747314453125	699.6378784179688	45.7317962646484	643.3895874023438	644.2769165039063	51.28729248046871	595.2974853515625	636.735595703125	39.02030563354489	779.1221313476563	388.0456237792969	71.59415435791011	837.2224731445313	355.8734741210938	74.61302185058588	795.9544067382813	324.6955261230469	75.34478759765621	1025.531982421875	144.0861968994141	170.0187835693359	881.5814208984375	29.60861206054693	177.7329101562499	932.0549926757813	16.82425117492681	125.9885711669921	468.8494873046874	728.379150390625	385.6330871582031	461.7720642089843	663.7242431640625	379.6682739257813	418.3586120605468	687.261962890625	376.8997802734375	377.4170532226563	364.2033081054688	340.4692993164063	383.6493225097656	299.5829772949219	337.4091796875	335.4166870117188	315.4074401855469	334.4397277832031	380.2626342773438	27.84578514099124	251.3189697265625	175.4808197021485	40.27039718627931	257.0792541503906	219.8587951660157	15.01013374328615	315.2668762207031	-88.09036254882837	726.4493408203125	-3209.50732421875	
71	0.7000000000000001	611.9612426757811	1373.16943359375	210.3375091552734	645.6421508789061	1156.59130859375	219.1745910644531	467.7373657226562	1301.925659179688	220.544448852539	404.5354614257812	1139.875366210938	230.388427734375	639.9994506835936	1309.286376953125	92.57659149169918	631.4113769531249	989.4196166992188	219.5644378662109	642.9238281249999	929.4573364257813	199.3686981201172	639.9815063476561	930.8018188476563	249.5400848388672	591.1361694335938	698.7251586914063	45.79202651977536	623.7757568359375	642.9481811523438	50.80228424072262	575.5615844726563	636.092041015625	38.68030166625973	758.1807250976563	387.9430541992188	68.39907836914058	817.398193359375	357.7462463378907	71.84037780761713	776.9564208984375	325.1756896972657	71.91375732421871	1011.131164550781	156.2605133056641	167.1729278564453	880.1884155273438	30.17094421386724	177.610122680664	929.3562622070313	20.74058532714849	125.7224578857421	453.5294494628906	730.3090209960938	386.3970947265625	447.0406494140624	665.6353149414063	380.2975158691406	403.4732055664062	688.927978515625	377.3792114257813	364.4974670410156	365.5379638671875	340.8797912597656	371.964599609375	301.3352661132813	339.0684814453125	323.3598022460938	316.2564697265625	334.4117126464844	379.5148315429688	29.16251754760745	251.7243957519531	173.5741577148438	36.06477737426759	256.3868408203125	219.0726928710938	12.80134105682374	315.8247985839844	-88.08415222167993	726.4518432617188	-3209.49365234375	
72	0.71	596.8615722656249	1374.40625	211.4820556640625	630.2537841796874	1157.807373046875	219.5652465820312	452.4797363281249	1303.37841796875	220.9286804199218	388.9195251464843	1141.465576171875	230.2169189453125	625.3098144531249	1310.9365234375	93.61737060546871	615.7774047851561	990.8214721679688	219.5253753662109	627.2066650390624	930.7406005859375	199.7378997802734	624.2879028320311	932.376708984375	249.8783569335937	571.8270263671875	697.9061889648438	45.73234939575192	603.4027099609375	641.543701171875	50.25166702270504	555.0573120117188	635.5704956054688	38.2889251708984	735.3828125	387.5656433105469	65.04994964599605	795.4395141601563	359.0964355468751	68.81632232666011	755.8863525390625	325.3381042480469	68.36807250976558	994.7291259765625	168.8401947021485	164.1440734863281	877.1639404296875	31.6264324188233	177.237319946289	924.554443359375	26.14987945556646	124.9239654541015	438.8355712890624	732.2000732421875	387.3273315429688	432.9779968261718	667.4613037109375	381.0575256347656	389.2282409667968	690.4615478515625	378.2032165527344	352.5301818847656	366.6790161132813	341.3869934082031	361.5725708007813	302.8595581054688	340.8553161621094	312.8163757324219	316.2306213378906	333.8978271484375	378.8954162597656	30.07180404663088	252.0557098388672	172.2661590576172	33.40652465820313	256.0193786621094	218.5613555908203	11.61081981658937	316.4797973632813	-88.0782852172854	726.4542846679688	-3209.481201171875	
73	0.72	581.8233642578124	1375.926635742188	212.5585021972656	615.0336914062499	1159.327514648438	219.9423828125	437.3246154785156	1305.062255859375	221.2243041992187	373.5162963867187	1143.250610351563	229.9687347412109	610.7113037109374	1312.884643554688	94.58952331542964	600.3790893554686	992.45068359375	219.5740356445312	611.7297363281249	932.2713012695313	200.1307373046875	608.8220214843749	934.1539306640625	250.2487487792968	552.1443481445313	697.2332763671875	45.53468704223629	582.3761596679688	640.122802734375	49.64801406860348	533.913330078125	635.2318115234375	37.79792785644528	710.8204956054688	386.9576416015626	61.61586761474605	771.43701171875	359.9107971191407	65.49501037597652	732.8247680664063	325.2112426757813	64.86829376220699	976.51123046875	181.5135803222657	160.9530944824218	871.8212280273438	34.13998031616217	176.4927062988281	917.0782470703125	33.02610778808599	123.4992599487304	424.7496337890624	734.00927734375	388.3635559082031	419.5273742675781	669.1766967773438	381.8509216308594	375.5739440917968	691.838134765625	379.2962341308594	341.7237854003906	367.544189453125	341.9704895019531	352.6557006835938	304.0580749511719	342.5001220703125	303.9383239746094	315.3988952636719	333.0709228515625	378.4342651367188	30.60880279541018	252.2911224365234	171.4320373535157	31.97805404663087	255.8414306640625	218.2507629394532	11.16715908050539	317.0844116210938	-88.07276153564477	726.45654296875	-3209.469482421875	
